<?xml version="1.0" encoding="UTF-8"?>
<svg width="514px" height="174px" viewBox="0 0 514 174" version="1.1" xmlns="http://www.w3.org/2000/svg" xmlns:xlink="http://www.w3.org/1999/xlink">
    <!-- Generator: Sketch 50.2 (55047) - http://www.bohemiancoding.com/sketch -->
    <title>hill</title>
    <desc>Created with Sketch.</desc>
    <defs></defs>
    <g id="Page-1" stroke="none" stroke-width="1" fill="none" fill-rule="evenodd">
        <g id="hill" transform="translate(1.000000, 2.000000)">
            <path d="M0,170.50347 C85.2109375,56.8344899 170.421875,3.48010881e-15 255.632813,0 C340.84375,0 426.054688,56.8344899 511.265625,170.50347" id="Path" stroke="#0A0A0A" stroke-width="2"></path>
            <path d="M73.8193359,156.987305 L70.9580078,156.987305 L70.9580078,160 L69.7226562,160 L69.7226562,152.890625 L74.2392578,152.890625 L74.2392578,153.886719 L70.9580078,153.886719 L70.9580078,156.000977 L73.8193359,156.000977 L73.8193359,156.987305 Z M76.3632812,160 L75.1767578,160 L75.1767578,154.716797 L76.3632812,154.716797 L76.3632812,160 Z M75.1035156,153.344727 C75.1035156,153.162434 75.161295,153.011068 75.2768555,152.890625 C75.3924159,152.770182 75.5576161,152.709961 75.7724609,152.709961 C75.9873058,152.709961 76.1533197,152.770182 76.2705078,152.890625 C76.3876959,153.011068 76.4462891,153.162434 76.4462891,153.344727 C76.4462891,153.523764 76.3876959,153.672688 76.2705078,153.791504 C76.1533197,153.91032 75.9873058,153.969727 75.7724609,153.969727 C75.5576161,153.969727 75.3924159,153.91032 75.2768555,153.791504 C75.161295,153.672688 75.1035156,153.523764 75.1035156,153.344727 Z M83.21875,159.077148 C82.9615873,159.412437 82.6051455,159.66634 82.1494141,159.838867 C81.6936826,160.011394 81.1761097,160.097656 80.5966797,160.097656 C80.0009736,160.097656 79.4736351,159.962566 79.0146484,159.692383 C78.5556618,159.422199 78.2016614,159.035647 77.9526367,158.532715 C77.703612,158.029783 77.5742188,157.443037 77.5644531,156.772461 L77.5644531,156.21582 C77.5644531,155.141596 77.821612,154.302575 78.3359375,153.69873 C78.850263,153.094886 79.5680292,152.792969 80.4892578,152.792969 C81.2802774,152.792969 81.9085263,152.988279 82.3740234,153.378906 C82.8395206,153.769533 83.1194657,154.332679 83.2138672,155.068359 L82.0029297,155.068359 C81.8662103,154.212235 81.3697959,153.78418 80.5136719,153.78418 C79.9602837,153.78418 79.5395522,153.983559 79.2514648,154.382324 C78.9633775,154.781089 78.8144532,155.366207 78.8046875,156.137695 L78.8046875,156.68457 C78.8046875,157.452803 78.9666325,158.049314 79.2905273,158.474121 C79.6144222,158.898928 80.0644502,159.111328 80.640625,159.111328 C81.2721386,159.111328 81.7213528,158.9681 81.9882812,158.681641 L81.9882812,157.290039 L80.5234375,157.290039 L80.5234375,156.352539 L83.21875,156.352539 L83.21875,159.077148 Z M89.7763672,152.890625 L89.7763672,157.641602 C89.7763672,158.396814 89.5346704,158.994952 89.0512695,159.436035 C88.5678687,159.877118 87.9241577,160.097656 87.1201172,160.097656 C86.306311,160.097656 85.6601586,159.880373 85.1816406,159.445801 C84.7031226,159.011228 84.4638672,158.408207 84.4638672,157.636719 L84.4638672,152.890625 L85.6943359,152.890625 L85.6943359,157.646484 C85.6943359,158.121747 85.8147774,158.484699 86.0556641,158.735352 C86.2965507,158.986004 86.6513648,159.111328 87.1201172,159.111328 C88.0706428,159.111328 88.5458984,158.610031 88.5458984,157.607422 L88.5458984,152.890625 L89.7763672,152.890625 Z M93.7070312,157.260742 L92.3300781,157.260742 L92.3300781,160 L91.0947266,160 L91.0947266,152.890625 L93.5947266,152.890625 C94.4150432,152.890625 95.0481749,153.074542 95.4941406,153.442383 C95.9401064,153.810223 96.1630859,154.342444 96.1630859,155.039062 C96.1630859,155.514325 96.048341,155.912271 95.8188477,156.23291 C95.5893543,156.55355 95.2695333,156.800129 94.859375,156.972656 L96.4560547,159.936523 L96.4560547,160 L95.1328125,160 L93.7070312,157.260742 Z M92.3300781,156.269531 L93.5996094,156.269531 C94.0162781,156.269531 94.3417957,156.164552 94.5761719,155.95459 C94.810548,155.744628 94.9277344,155.457359 94.9277344,155.092773 C94.9277344,154.711912 94.8194998,154.417319 94.6030273,154.208984 C94.3865549,154.00065 94.0634787,153.893229 93.6337891,153.886719 L92.3300781,153.886719 L92.3300781,156.269531 Z M98.6386719,160 L97.4082031,160 L97.4082031,152.890625 L98.6386719,152.890625 L98.6386719,160 Z M105.796875,160 L104.561523,160 L101.392578,154.956055 L101.392578,160 L100.157227,160 L100.157227,152.890625 L101.392578,152.890625 L104.571289,157.954102 L104.571289,152.890625 L105.796875,152.890625 L105.796875,160 Z M112.706055,159.077148 C112.448892,159.412437 112.09245,159.66634 111.636719,159.838867 C111.180987,160.011394 110.663414,160.097656 110.083984,160.097656 C109.488278,160.097656 108.96094,159.962566 108.501953,159.692383 C108.042966,159.422199 107.688966,159.035647 107.439941,158.532715 C107.190917,158.029783 107.061523,157.443037 107.051758,156.772461 L107.051758,156.21582 C107.051758,155.141596 107.308917,154.302575 107.823242,153.69873 C108.337568,153.094886 109.055334,152.792969 109.976562,152.792969 C110.767582,152.792969 111.395831,152.988279 111.861328,153.378906 C112.326825,153.769533 112.60677,154.332679 112.701172,155.068359 L111.490234,155.068359 C111.353515,154.212235 110.857101,153.78418 110.000977,153.78418 C109.447588,153.78418 109.026857,153.983559 108.73877,154.382324 C108.450682,154.781089 108.301758,155.366207 108.291992,156.137695 L108.291992,156.68457 C108.291992,157.452803 108.453937,158.049314 108.777832,158.474121 C109.101727,158.898928 109.551755,159.111328 110.12793,159.111328 C110.759443,159.111328 111.208658,158.9681 111.475586,158.681641 L111.475586,157.290039 L110.010742,157.290039 L110.010742,156.352539 L112.706055,156.352539 L112.706055,159.077148 Z M121.397461,153.886719 L119.180664,153.886719 L119.180664,160 L117.955078,160 L117.955078,153.886719 L115.757812,153.886719 L115.757812,152.890625 L121.397461,152.890625 L121.397461,153.886719 Z M127.974609,160 L126.744141,160 L126.744141,156.84082 L123.56543,156.84082 L123.56543,160 L122.330078,160 L122.330078,152.890625 L123.56543,152.890625 L123.56543,155.849609 L126.744141,155.849609 L126.744141,152.890625 L127.974609,152.890625 L127.974609,160 Z M130.738281,160 L129.507812,160 L129.507812,152.890625 L130.738281,152.890625 L130.738281,160 Z M137.896484,160 L136.661133,160 L133.492188,154.956055 L133.492188,160 L132.256836,160 L132.256836,152.890625 L133.492188,152.890625 L136.670898,157.954102 L136.670898,152.890625 L137.896484,152.890625 L137.896484,160 Z M144.805664,159.077148 C144.548501,159.412437 144.19206,159.66634 143.736328,159.838867 C143.280597,160.011394 142.763024,160.097656 142.183594,160.097656 C141.587888,160.097656 141.060549,159.962566 140.601562,159.692383 C140.142576,159.422199 139.788575,159.035647 139.539551,158.532715 C139.290526,158.029783 139.161133,157.443037 139.151367,156.772461 L139.151367,156.21582 C139.151367,155.141596 139.408526,154.302575 139.922852,153.69873 C140.437177,153.094886 141.154943,152.792969 142.076172,152.792969 C142.867191,152.792969 143.49544,152.988279 143.960938,153.378906 C144.426435,153.769533 144.70638,154.332679 144.800781,155.068359 L143.589844,155.068359 C143.453124,154.212235 142.95671,153.78418 142.100586,153.78418 C141.547198,153.78418 141.126466,153.983559 140.838379,154.382324 C140.550292,154.781089 140.401367,155.366207 140.391602,156.137695 L140.391602,156.68457 C140.391602,157.452803 140.553547,158.049314 140.877441,158.474121 C141.201336,158.898928 141.651364,159.111328 142.227539,159.111328 C142.859053,159.111328 143.308267,158.9681 143.575195,158.681641 L143.575195,157.290039 L142.110352,157.290039 L142.110352,156.352539 L144.805664,156.352539 L144.805664,159.077148 Z M149.878906,158.168945 C149.878906,157.856444 149.769044,157.615561 149.549316,157.446289 C149.329589,157.277017 148.933271,157.106121 148.360352,156.933594 C147.787432,156.761067 147.331707,156.569011 146.993164,156.357422 C146.345374,155.950519 146.021484,155.419925 146.021484,154.765625 C146.021484,154.192705 146.255043,153.720705 146.722168,153.349609 C147.189293,152.978514 147.795569,152.792969 148.541016,152.792969 C149.03581,152.792969 149.476886,152.884114 149.864258,153.066406 C150.25163,153.248699 150.555988,153.508299 150.777344,153.845215 C150.998699,154.182131 151.109375,154.555662 151.109375,154.96582 L149.878906,154.96582 C149.878906,154.594725 149.762534,154.3042 149.529785,154.094238 C149.297037,153.884276 148.964195,153.779297 148.53125,153.779297 C148.127602,153.779297 147.814291,153.865559 147.591309,154.038086 C147.368326,154.210613 147.256836,154.451496 147.256836,154.760742 C147.256836,155.02116 147.377277,155.238443 147.618164,155.412598 C147.859051,155.586752 148.256182,155.756021 148.80957,155.92041 C149.362958,156.084799 149.80729,156.271972 150.142578,156.481934 C150.477866,156.691896 150.723632,156.932779 150.879883,157.20459 C151.036134,157.476401 151.114258,157.794595 151.114258,158.15918 C151.114258,158.751631 150.887209,159.222817 150.433105,159.572754 C149.979002,159.922691 149.36296,160.097656 148.584961,160.097656 C148.070635,160.097656 147.597821,160.002442 147.166504,159.812012 C146.735187,159.621581 146.399904,159.358726 146.160645,159.023438 C145.921386,158.688149 145.801758,158.297528 145.801758,157.851562 L147.037109,157.851562 C147.037109,158.25521 147.170572,158.567707 147.4375,158.789062 C147.704428,159.010418 148.086912,159.121094 148.584961,159.121094 C149.014651,159.121094 149.337727,159.034018 149.554199,158.859863 C149.770672,158.685709 149.878906,158.455405 149.878906,158.168945 Z M160.362305,156.630859 C160.362305,157.327477 160.241863,157.938637 160.000977,158.464355 C159.76009,158.990074 159.415855,159.393716 158.968262,159.675293 C158.520668,159.95687 158.005537,160.097656 157.422852,160.097656 C156.846677,160.097656 156.333173,159.95687 155.882324,159.675293 C155.431476,159.393716 155.083172,158.992516 154.837402,158.47168 C154.591633,157.950844 154.467122,157.350264 154.463867,156.669922 L154.463867,156.269531 C154.463867,155.576168 154.58675,154.964195 154.83252,154.433594 C155.078289,153.902992 155.424965,153.496909 155.872559,153.215332 C156.320152,152.933755 156.833656,152.792969 157.413086,152.792969 C157.992516,152.792969 158.50602,152.932128 158.953613,153.210449 C159.401207,153.488771 159.747069,153.889158 159.991211,154.411621 C160.235353,154.934085 160.359049,155.541989 160.362305,156.235352 L160.362305,156.630859 Z M159.126953,156.259766 C159.126953,155.472001 158.978029,154.868166 158.680176,154.448242 C158.382323,154.028318 157.959964,153.818359 157.413086,153.818359 C156.879229,153.818359 156.461753,154.027504 156.160645,154.445801 C155.859536,154.864097 155.705729,155.455725 155.699219,156.220703 L155.699219,156.630859 C155.699219,157.412113 155.851398,158.015948 156.155762,158.442383 C156.460125,158.868817 156.882484,159.082031 157.422852,159.082031 C157.969729,159.082031 158.390461,158.8737 158.685059,158.457031 C158.979656,158.040362 159.126953,157.431645 159.126953,156.630859 L159.126953,156.259766 Z M166.792969,152.890625 L166.792969,157.641602 C166.792969,158.396814 166.551272,158.994952 166.067871,159.436035 C165.58447,159.877118 164.940759,160.097656 164.136719,160.097656 C163.322913,160.097656 162.67676,159.880373 162.198242,159.445801 C161.719724,159.011228 161.480469,158.408207 161.480469,157.636719 L161.480469,152.890625 L162.710938,152.890625 L162.710938,157.646484 C162.710938,158.121747 162.831379,158.484699 163.072266,158.735352 C163.313152,158.986004 163.667966,159.111328 164.136719,159.111328 C165.087244,159.111328 165.5625,158.610031 165.5625,157.607422 L165.5625,152.890625 L166.792969,152.890625 Z M173.248047,153.886719 L171.03125,153.886719 L171.03125,160 L169.805664,160 L169.805664,153.886719 L167.608398,153.886719 L167.608398,152.890625 L173.248047,152.890625 L173.248047,153.886719 Z" id="FiGURING-THINGS-OUT" fill="#4A4A4A" fill-rule="evenodd"></path>
            <path d="M354.97168,152.890625 L357.022461,158.339844 L359.068359,152.890625 L360.665039,152.890625 L360.665039,160 L359.43457,160 L359.43457,157.65625 L359.556641,154.521484 L357.457031,160 L356.573242,160 L354.478516,154.526367 L354.600586,157.65625 L354.600586,160 L353.370117,160 L353.370117,152.890625 L354.97168,152.890625 Z M366.192383,158.344727 L363.438477,158.344727 L362.862305,160 L361.578125,160 L364.263672,152.890625 L365.37207,152.890625 L368.0625,160 L366.773438,160 L366.192383,158.344727 Z M363.785156,157.348633 L365.845703,157.348633 L364.81543,154.399414 L363.785156,157.348633 Z M370.90918,156.928711 L370.103516,157.783203 L370.103516,160 L368.868164,160 L368.868164,152.890625 L370.103516,152.890625 L370.103516,156.225586 L370.787109,155.380859 L372.867188,152.890625 L374.361328,152.890625 L371.719727,156.040039 L374.512695,160 L373.047852,160 L370.90918,156.928711 Z M376.475586,160 L375.245117,160 L375.245117,152.890625 L376.475586,152.890625 L376.475586,160 Z M383.633789,160 L382.398438,160 L379.229492,154.956055 L379.229492,160 L377.994141,160 L377.994141,152.890625 L379.229492,152.890625 L382.408203,157.954102 L382.408203,152.890625 L383.633789,152.890625 L383.633789,160 Z M390.542969,159.077148 C390.285806,159.412437 389.929364,159.66634 389.473633,159.838867 C389.017901,160.011394 388.500328,160.097656 387.920898,160.097656 C387.325192,160.097656 386.797854,159.962566 386.338867,159.692383 C385.879881,159.422199 385.52588,159.035647 385.276855,158.532715 C385.027831,158.029783 384.898438,157.443037 384.888672,156.772461 L384.888672,156.21582 C384.888672,155.141596 385.145831,154.302575 385.660156,153.69873 C386.174482,153.094886 386.892248,152.792969 387.813477,152.792969 C388.604496,152.792969 389.232745,152.988279 389.698242,153.378906 C390.163739,153.769533 390.443684,154.332679 390.538086,155.068359 L389.327148,155.068359 C389.190429,154.212235 388.694015,153.78418 387.837891,153.78418 C387.284502,153.78418 386.863771,153.983559 386.575684,154.382324 C386.287596,154.781089 386.138672,155.366207 386.128906,156.137695 L386.128906,156.68457 C386.128906,157.452803 386.290851,158.049314 386.614746,158.474121 C386.938641,158.898928 387.388669,159.111328 387.964844,159.111328 C388.596357,159.111328 389.045572,158.9681 389.3125,158.681641 L389.3125,157.290039 L387.847656,157.290039 L387.847656,156.352539 L390.542969,156.352539 L390.542969,159.077148 Z M395.694336,160 L394.463867,160 L394.463867,152.890625 L395.694336,152.890625 L395.694336,160 Z M402.208008,153.886719 L399.991211,153.886719 L399.991211,160 L398.765625,160 L398.765625,153.886719 L396.568359,153.886719 L396.568359,152.890625 L402.208008,152.890625 L402.208008,153.886719 Z M410.982422,160 L409.751953,160 L409.751953,156.84082 L406.573242,156.84082 L406.573242,160 L405.337891,160 L405.337891,152.890625 L406.573242,152.890625 L406.573242,155.849609 L409.751953,155.849609 L409.751953,152.890625 L410.982422,152.890625 L410.982422,160 Z M416.509766,158.344727 L413.755859,158.344727 L413.179688,160 L411.895508,160 L414.581055,152.890625 L415.689453,152.890625 L418.379883,160 L417.09082,160 L416.509766,158.344727 Z M414.102539,157.348633 L416.163086,157.348633 L415.132812,154.399414 L414.102539,157.348633 Z M420.420898,157.358398 L420.420898,160 L419.185547,160 L419.185547,152.890625 L421.905273,152.890625 C422.699548,152.890625 423.330239,153.097329 423.797363,153.510742 C424.264488,153.924156 424.498047,154.471025 424.498047,155.151367 C424.498047,155.847985 424.269371,156.389972 423.812012,156.777344 C423.354653,157.164715 422.714197,157.358398 421.890625,157.358398 L420.420898,157.358398 Z M420.420898,156.367188 L421.905273,156.367188 C422.344729,156.367188 422.680012,156.263836 422.911133,156.057129 C423.142254,155.850422 423.257812,155.55176 423.257812,155.161133 C423.257812,154.777016 423.140626,154.470216 422.90625,154.240723 C422.671874,154.011229 422.349611,153.893229 421.939453,153.886719 L420.420898,153.886719 L420.420898,156.367188 Z M426.8125,157.358398 L426.8125,160 L425.577148,160 L425.577148,152.890625 L428.296875,152.890625 C429.09115,152.890625 429.72184,153.097329 430.188965,153.510742 C430.65609,153.924156 430.889648,154.471025 430.889648,155.151367 C430.889648,155.847985 430.660972,156.389972 430.203613,156.777344 C429.746254,157.164715 429.105798,157.358398 428.282227,157.358398 L426.8125,157.358398 Z M426.8125,156.367188 L428.296875,156.367188 C428.73633,156.367188 429.071613,156.263836 429.302734,156.057129 C429.533855,155.850422 429.649414,155.55176 429.649414,155.161133 C429.649414,154.777016 429.532228,154.470216 429.297852,154.240723 C429.063475,154.011229 428.741213,153.893229 428.331055,153.886719 L426.8125,153.886719 L426.8125,156.367188 Z M436.124023,156.826172 L433.204102,156.826172 L433.204102,159.013672 L436.617188,159.013672 L436.617188,160 L431.96875,160 L431.96875,152.890625 L436.583008,152.890625 L436.583008,153.886719 L433.204102,153.886719 L433.204102,155.849609 L436.124023,155.849609 L436.124023,156.826172 Z M443.262695,160 L442.027344,160 L438.858398,154.956055 L438.858398,160 L437.623047,160 L437.623047,152.890625 L438.858398,152.890625 L442.037109,157.954102 L442.037109,152.890625 L443.262695,152.890625 L443.262695,160 Z" id="MAKING-IT-HAPPEN" fill="#4A4A4A" fill-rule="evenodd"></path>
            <path d="M256.5,-0.5 L256.5,170.573084" id="Line" stroke="#979797" stroke-width="2" stroke-linecap="square" stroke-dasharray="5"></path>
        </g>
    </g>
</svg>